<svg width="28" height="24" viewBox="0 0 28 24" fill="none" xmlns="http://www.w3.org/2000/svg">
<path d="M25.6667 10.3333H5.90008L11.9501 3.06666C12.233 2.7263 12.3691 2.2875 12.3284 1.84679C12.2878 1.40607 12.0738 0.999556 11.7334 0.716658C11.3931 0.433761 10.9543 0.297657 10.5135 0.33829C10.0728 0.378923 9.66631 0.592964 9.38341 0.933325L1.05008 10.9333C0.994016 11.0129 0.94388 11.0964 0.900081 11.1833C0.900081 11.2667 0.900082 11.3167 0.783415 11.4C0.707871 11.5911 0.668317 11.7945 0.666748 12C0.668317 12.2055 0.707871 12.4089 0.783415 12.6C0.783415 12.6833 0.783414 12.7333 0.900081 12.8167C0.94388 12.9036 0.994016 12.9871 1.05008 13.0667L9.38341 23.0667C9.54012 23.2548 9.73635 23.4061 9.95816 23.5098C10.18 23.6135 10.4219 23.6671 10.6667 23.6667C11.0562 23.6674 11.4336 23.5318 11.7334 23.2833C11.9022 23.1434 12.0417 22.9716 12.1439 22.7777C12.2462 22.5838 12.3092 22.3716 12.3293 22.1533C12.3494 21.935 12.3263 21.7149 12.2612 21.5055C12.1961 21.2962 12.0904 21.1017 11.9501 20.9333L5.90008 13.6667H25.6667C26.1088 13.6667 26.5327 13.4911 26.8453 13.1785C27.1578 12.8659 27.3334 12.442 27.3334 12C27.3334 11.558 27.1578 11.134 26.8453 10.8215C26.5327 10.5089 26.1088 10.3333 25.6667 10.3333Z" fill="black"/>
</svg>
