<svg width="21" height="21" viewBox="0 0 21 21" fill="none" xmlns="http://www.w3.org/2000/svg">
<path d="M10.4942 10.0158C12.6882 10.0158 14.4667 8.23725 14.4667 6.0433C14.4667 3.84935 12.6882 2.0708 10.4942 2.0708C8.30028 2.0708 6.52173 3.84935 6.52173 6.0433C6.52173 8.23725 8.30028 10.0158 10.4942 10.0158Z" fill="#CEDADC"/>
<path d="M6.99991 15.5459C7.01204 15.2231 7.11958 14.9112 7.30894 14.6496C7.4983 14.3879 7.76099 14.1883 8.06379 14.0759C8.36659 13.9635 8.69591 13.9434 9.01012 14.0182C9.32433 14.093 9.60933 14.2592 9.82908 14.4959L12.0807 16.9167L16.0707 12.4659C14.4226 11.3675 12.4804 10.794 10.4999 10.8209C9.12609 10.7861 7.76133 11.0528 6.5016 11.602C5.24187 12.1513 4.11774 12.9698 3.20825 14C3.13131 14.1026 3.09031 14.2277 3.09158 14.3559V17.5C3.09144 17.8035 3.20955 18.0951 3.42082 18.3129C3.6321 18.5307 3.91993 18.6576 4.22325 18.6667H9.22241L7.43158 16.7417C7.28362 16.5812 7.16922 16.3927 7.09509 16.1873C7.02096 15.982 6.9886 15.7639 6.99991 15.5459Z" fill="#CEDADC"/>
<path d="M16.7766 18.6666C17.0799 18.6575 17.3678 18.5306 17.579 18.3128C17.7903 18.095 17.9084 17.8034 17.9083 17.5V15.3066L14.9158 18.6666H16.7766Z" fill="#CEDADC"/>
<path d="M19.6993 10.8617C19.642 10.81 19.5751 10.7701 19.5023 10.7444C19.4295 10.7188 19.3524 10.7078 19.2753 10.7121C19.1983 10.7164 19.1229 10.736 19.0535 10.7697C18.9841 10.8034 18.922 10.8505 18.8709 10.9084L12.0926 18.4917L9.05926 15.2309C9.00947 15.1727 8.9487 15.1248 8.88041 15.0901C8.81213 15.0553 8.73768 15.0344 8.6613 15.0284C8.58492 15.0225 8.50812 15.0316 8.43528 15.0553C8.36243 15.0791 8.29498 15.1169 8.23676 15.1667C8.18208 15.2209 8.13869 15.2855 8.10907 15.3565C8.07946 15.4276 8.06421 15.5039 8.06421 15.5809C8.06421 15.6579 8.07946 15.7341 8.10907 15.8052C8.13869 15.8763 8.18208 15.9408 8.23676 15.995L12.1334 20.195L19.7401 11.6667C19.8382 11.5531 19.8887 11.406 19.8811 11.256C19.8735 11.1061 19.8083 10.9649 19.6993 10.8617Z" fill="#CEDADC"/>
</svg>
