<svg width="18" height="15" viewBox="0 0 18 15" fill="none" xmlns="http://www.w3.org/2000/svg">
<path d="M11.4216 1.7339C11.6831 1.7744 11.7956 2.09784 11.6044 2.28965L10.5356 3.32156L10.7887 4.78406C10.8028 5.04844 10.5553 5.25094 10.3134 5.13L9.00562 4.44094L7.68656 5.13844C7.44469 5.25937 7.17187 5.05687 7.21125 4.79531L7.46437 3.33L6.39562 2.28965C6.20437 2.09784 6.31687 1.7744 6.57844 1.7339L8.04938 1.52184L8.71312 0.178083C8.83406 -0.0643826 9.17719 -0.0542858 9.28687 0.178083L9.95062 1.52184L11.4216 1.7339ZM10.8 7.2C11.2978 7.2 11.7 7.60219 11.7 8.1V13.5C11.7 13.9978 11.2978 14.4 10.8 14.4H7.2C6.70219 14.4 6.3 13.9978 6.3 13.5V8.1C6.3 7.60219 6.70219 7.2 7.2 7.2H10.8ZM4.5 9C4.99781 9 5.4 9.40219 5.4 9.9V13.5C5.4 13.9978 4.99781 14.4 4.5 14.4H0.9C0.403031 14.4 0 13.9978 0 13.5V9.9C0 9.40219 0.403031 9 0.9 9H4.5ZM12.6 11.7C12.6 11.2022 13.0022 10.8 13.5 10.8H17.1C17.5978 10.8 18 11.2022 18 11.7V13.5C18 13.9978 17.5978 14.4 17.1 14.4H13.5C13.0022 14.4 12.6 13.9978 12.6 13.5V11.7Z" fill="#CEDADC"/>
</svg>
