<svg width="18" height="17" viewBox="0 0 18 17" fill="none" xmlns="http://www.w3.org/2000/svg">
<path d="M12.6971 9.47223C12.8326 9.61673 12.8259 9.84125 12.6829 9.97847C12.5412 10.1146 12.3128 10.1112 12.1738 9.97057C12.1119 9.90868 11.5411 9.37938 10.5865 10.02C10.5252 10.0616 10.4549 10.0814 10.3857 10.0814C10.2693 10.0814 10.1551 10.0252 10.0853 9.92112C9.97397 9.75577 10.0184 9.53125 10.1837 9.41939C11.3775 8.61779 12.3489 9.10217 12.6971 9.47221L12.6971 9.47223Z" fill="#CEDADC"/>
<path d="M7.81614 9.42003C7.98213 9.53138 8.02589 9.75639 7.91519 9.92176C7.84488 10.0264 7.7312 10.0821 7.6148 10.0821C7.54566 10.0821 7.47535 10.0624 7.41346 10.0207C6.46116 9.38222 5.89196 9.907 5.82723 9.97122C5.6905 10.113 5.46391 10.1192 5.31876 9.98365C5.17361 9.84692 5.16688 9.61801 5.30361 9.47233C5.64946 9.10229 6.62261 8.61793 7.81616 9.42003H7.81614Z" fill="#CEDADC"/>
<path d="M5.83554 13.7101C6.72426 14.8959 7.82616 15.6868 9.00064 15.6868C11.5448 15.6868 13.7555 12.0015 14.1689 8.55229C13.4652 8.33567 10.1883 8.98088 6.46658 5.60599C6.46658 5.60599 5.43164 7.34967 3.77899 7.93802C3.85214 9.23631 4.2025 10.5992 4.74193 11.8168C4.18169 11.5407 3.67825 11.2426 3.26263 10.9691C3.26315 10.9646 3.20022 10.7549 3.16979 10.6536C2.85309 9.58539 2.67428 8.48184 2.67428 7.43113C2.67428 3.63982 4.98043 1.46606 9.00131 1.46606C13.0222 1.46606 15.3287 3.64002 15.3287 7.43113C15.3287 8.58141 15.1137 9.79527 14.7392 10.9556C14.8027 11.9602 15.0046 14.1252 15.6301 15.8666C15.6301 15.8666 14.0719 15.8616 12.0208 15.4582C11.1241 16.2722 10.0959 16.771 9.00131 16.771C7.90721 16.771 6.87903 16.2721 5.98238 15.4582C3.92948 15.8613 2.37305 15.8663 2.37305 15.8663C2.77571 14.7436 3.00025 13.4549 3.12789 12.4075C3.85686 12.866 4.78884 13.3626 5.83568 13.7098L5.83554 13.7101Z" fill="#CEDADC"/>
<path d="M16.7605 5.80197C16.2559 2.48566 13.0335 0 8.99989 0C4.96693 0 1.74442 2.48559 1.24025 5.80197C0.570328 6.07142 -0.166025 6.79249 0.03312 8.69544C0.251941 10.7863 1.2796 11.1546 2.03047 11.2115C2.90846 11.8972 5.13993 13.4456 7.68628 13.7477C7.76786 14.0092 8.00299 14.2039 8.29045 14.2039H9.26917C9.62304 14.2039 9.91099 13.9153 9.91099 13.5615C9.91099 13.2076 9.62303 12.9197 9.26917 12.9197H8.29045C8.07046 12.9197 7.88596 13.0373 7.77071 13.206C5.41226 12.9337 3.27768 11.4837 2.40957 10.8171C2.30663 9.9847 2.08561 8.03226 2.10361 6.70992C2.10361 3.47451 5.13315 0.940424 9.00043 0.940424C12.868 0.940424 15.8976 3.47445 15.8976 6.70992C15.9206 8.42837 15.5393 11.2198 15.5393 11.2198C16.2474 11.2345 17.7027 11.2306 17.967 8.69589C18.1655 6.79255 17.4305 6.07148 16.7606 5.80203L16.7605 5.80197Z" fill="#CEDADC"/>
</svg>
