<svg width="18" height="18" viewBox="0 0 18 18" fill="none" xmlns="http://www.w3.org/2000/svg">
<path fill-rule="evenodd" clip-rule="evenodd" d="M3.59985 9.4503C3.59985 9.20169 3.8013 9.00024 4.04991 9.00024H13.9498C14.1984 9.00024 14.3999 9.20169 14.3999 9.4503C14.3999 9.69876 14.1984 9.90021 13.9498 9.90021H4.04991C3.8013 9.90021 3.59985 9.69876 3.59985 9.4503Z" fill="#CEDADC"/>
<path fill-rule="evenodd" clip-rule="evenodd" d="M4.95006 9.00024C5.19852 9.00024 5.40012 9.20169 5.40012 9.4503V11.2502C5.40012 11.4988 5.19852 11.7003 4.95006 11.7003C4.7016 11.7003 4.5 11.4988 4.5 11.2502V9.4503C4.5 9.20169 4.7016 9.00024 4.95006 9.00024Z" fill="#CEDADC"/>
<path fill-rule="evenodd" clip-rule="evenodd" d="M13.0502 9.00024C13.2986 9.00024 13.5002 9.20169 13.5002 9.4503V11.2502C13.5002 11.4988 13.2986 11.7003 13.0502 11.7003C12.8017 11.7003 12.6001 11.4988 12.6001 11.2502V9.4503C12.6001 9.20169 12.8017 9.00024 13.0502 9.00024Z" fill="#CEDADC"/>
<path fill-rule="evenodd" clip-rule="evenodd" d="M15.3 4.49996C16.5427 4.49996 17.5501 3.49258 17.5501 2.24998C17.5501 1.00738 16.5427 0 15.3 0C14.0574 0 13.05 1.00738 13.05 2.24998C13.05 2.46514 13.0803 2.67339 13.1366 2.87045L12.8225 3.49875C12.5819 3.98013 13.0165 4.52226 13.5388 4.39161L14.2162 4.22226C14.5377 4.3993 14.907 4.49995 15.3 4.49995L15.3 4.49996Z" fill="#CEDADC"/>
<path d="M17.1 13.5003C17.1 14.4944 16.294 15.3002 15.2999 15.3002C14.3058 15.3002 13.5 14.4944 13.5 13.5003C13.5 12.5062 14.3058 11.7002 15.2999 11.7002C16.294 11.7002 17.1 12.5062 17.1 13.5003Z" fill="#CEDADC"/>
<path fill-rule="evenodd" clip-rule="evenodd" d="M15.2999 15.3002C16.294 15.3002 17.1 14.4944 17.1 13.5003C17.1 12.5062 16.294 11.7002 15.2999 11.7002C14.3058 11.7002 13.5 12.5062 13.5 13.5003C13.5 14.4944 14.3058 15.3002 15.2999 15.3002Z" fill="#CEDADC"/>
<path d="M4.4999 13.5003C4.4999 14.4944 3.69409 15.3002 2.69998 15.3002C1.70586 15.3002 0.899902 14.4944 0.899902 13.5003C0.899902 12.5062 1.70586 11.7002 2.69998 11.7002C3.69409 11.7002 4.4999 12.5062 4.4999 13.5003Z" fill="#CEDADC"/>
<path fill-rule="evenodd" clip-rule="evenodd" d="M2.69998 15.3002C3.69409 15.3002 4.4999 14.4944 4.4999 13.5003C4.4999 12.5062 3.69409 11.7002 2.69998 11.7002C1.70586 11.7002 0.899902 12.5062 0.899902 13.5003C0.899902 14.4944 1.70586 15.3002 2.69998 15.3002Z" fill="#CEDADC"/>
<path d="M10.8001 13.5003C10.8001 14.4944 9.99414 15.3002 9.00003 15.3002C8.00591 15.3002 7.19995 14.4944 7.19995 13.5003C7.19995 12.5062 8.00591 11.7002 9.00003 11.7002C9.99414 11.7002 10.8001 12.5062 10.8001 13.5003Z" fill="#CEDADC"/>
<path fill-rule="evenodd" clip-rule="evenodd" d="M9.00003 15.3002C9.99414 15.3002 10.8001 14.4944 10.8001 13.5003C10.8001 12.5062 9.99414 11.7002 9.00003 11.7002C8.00591 11.7002 7.19995 12.5062 7.19995 13.5003C7.19995 14.4944 8.00591 15.3002 9.00003 15.3002Z" fill="#CEDADC"/>
<path d="M10.8001 4.49987C10.8001 5.49399 9.99414 6.29995 9.00003 6.29995C8.00591 6.29995 7.19995 5.49399 7.19995 4.49987C7.19995 3.50576 8.00591 2.69995 9.00003 2.69995C9.99414 2.69995 10.8001 3.50576 10.8001 4.49987Z" fill="#CEDADC"/>
<path fill-rule="evenodd" clip-rule="evenodd" d="M9.00003 6.30019C9.99414 6.30019 10.8001 5.49423 10.8001 4.50012C10.8001 3.506 9.99414 2.7002 9.00003 2.7002C8.00591 2.7002 7.19995 3.506 7.19995 4.50012C7.19995 5.49423 8.00591 6.30019 9.00003 6.30019Z" fill="#CEDADC"/>
<path fill-rule="evenodd" clip-rule="evenodd" d="M5.40008 18.0001C5.40008 16.5089 4.19123 15.3 2.70004 15.3C1.20885 15.3 0 16.5089 0 18.0001H5.40008Z" fill="#CEDADC"/>
<path fill-rule="evenodd" clip-rule="evenodd" d="M11.7001 18.0001C11.7001 16.5089 10.4913 15.3 9.00009 15.3C7.50889 15.3 6.30005 16.5089 6.30005 18.0001H11.7001Z" fill="#CEDADC"/>
<path fill-rule="evenodd" clip-rule="evenodd" d="M17.9999 18.0001C17.9999 16.5089 16.7912 15.3 15.2999 15.3C13.8087 15.3 12.5999 16.5089 12.5999 18.0001H17.9999Z" fill="#CEDADC"/>
<path fill-rule="evenodd" clip-rule="evenodd" d="M11.7001 9.00009C11.7001 7.50889 10.4913 6.30005 9.00009 6.30005C7.50889 6.30005 6.30005 7.50889 6.30005 9.00009H11.7001Z" fill="#CEDADC"/>
</svg>
