<svg width="15" height="18" viewBox="0 0 15 18" fill="none" xmlns="http://www.w3.org/2000/svg">
<path d="M13.7956 0H2.33391C1.71544 0 1.12229 0.24543 0.684677 0.682481C0.247065 1.11953 0.000836801 1.71241 0 2.33087V15.6691C0.000817205 16.2876 0.247062 16.8805 0.684677 17.3175C1.12229 17.7546 1.71541 18 2.33391 18H13.7956C14.0484 18 14.2533 17.7952 14.2533 17.5424C14.2533 17.2896 14.0484 17.0847 13.7956 17.0847H2.33391C1.94657 17.1027 1.5689 16.9615 1.28846 16.6937C1.00803 16.4261 0.849492 16.0552 0.849492 15.6676C0.849492 15.28 1.00803 14.9092 1.28846 14.6415C1.5689 14.3738 1.94657 14.2325 2.33391 14.2504H13.7956C14.0484 14.2504 14.2533 14.0456 14.2533 13.7928V0.457695C14.2533 0.204912 14.0484 6.97616e-05 13.7956 6.97616e-05V0ZM7.58413 0.915251H10.635V5.67769L9.46038 4.28044C9.3728 4.17762 9.24464 4.11837 9.10955 4.11837C8.97446 4.11837 8.84628 4.17762 8.75872 4.28044L7.58413 5.67769V0.915251Z" fill="#CEDADC"/>
</svg>
