<svg width="18" height="17" viewBox="0 0 18 17" fill="none" xmlns="http://www.w3.org/2000/svg">
<path d="M17.6275 8.35854L9.4491 0.186127C9.39021 0.127125 9.32027 0.0803154 9.24327 0.0483774C9.16627 0.0164395 9.08373 0 9.00037 0C8.91701 0 8.83447 0.0164395 8.75747 0.0483774C8.68047 0.0803154 8.61053 0.127125 8.55164 0.186127L0.373278 8.35854C0.135015 8.5968 0 8.92044 0 9.25798C0 9.95887 0.569845 10.5287 1.27073 10.5287H2.13245V16.3602C2.13245 16.7116 2.41638 16.9956 2.76782 16.9956H7.72964V12.548H9.95342V16.9956H15.2329C15.5844 16.9956 15.8683 16.7116 15.8683 16.3602V10.5287H16.73C17.0675 10.5287 17.3912 10.3957 17.6295 10.1554C18.1238 9.65906 18.1238 8.85492 17.6275 8.35854V8.35854Z" fill="#CEDADC"/>
</svg>
