<svg width="18" height="18" viewBox="0 0 18 18" fill="none" xmlns="http://www.w3.org/2000/svg">
<path d="M9 0C7.82308 0 6.92308 0.9 6.92308 2.07692V6.23077C6.92308 7.40769 7.82308 8.30769 9 8.30769H13.1538L15.9231 11.0769V8.30769C17.1 8.30769 18 7.40769 18 6.23077V2.07692C18 0.9 17.1 0 15.9231 0H9ZM11.8994 2.07692H13.0888L14.2574 6.23077H13.2189L12.9372 5.19231H11.8987L11.6398 6.23077H10.7308L11.8994 2.07692ZM12.4615 2.76923C12.3923 3.04615 12.3148 3.384 12.2448 3.59169L12.051 4.5H12.8728L12.6775 3.591C12.5398 3.384 12.4615 3.04615 12.4615 2.76923ZM2.07692 6.92308C0.9 6.92308 0 7.82308 0 9V13.1538C0 14.3308 0.9 15.2308 2.07692 15.2308V18L4.84615 15.2308H9C10.1769 15.2308 11.0769 14.3308 11.0769 13.1538V9H9C7.68462 9 6.642 8.1 6.29585 6.92308H2.07692ZM5.25738 8.93492C6.43431 8.93492 6.98815 9.90415 6.98815 11.0118C6.98815 11.9811 6.65515 12.5958 6.10131 12.8728C6.37823 13.0112 6.70639 13.0846 7.05254 13.1538L6.79362 13.8462C6.309 13.7077 5.80638 13.4917 5.32177 13.2833C5.25254 13.2141 5.13138 13.2189 5.06215 13.2189C4.23138 13.1497 3.46154 12.4615 3.46154 11.0769C3.46154 9.9 4.14969 8.93492 5.25738 8.93492ZM5.25738 9.69231C4.70354 9.69231 4.43492 10.3154 4.43492 11.0769C4.43492 11.9077 4.70354 12.4615 5.25738 12.4615C5.81123 12.4615 6.10062 11.8385 6.10062 11.0769C6.10062 10.3154 5.81123 9.69231 5.25738 9.69231Z" fill="#CEDADC"/>
</svg>
