<svg width="19" height="19" viewBox="0 0 19 19" fill="none" xmlns="http://www.w3.org/2000/svg">
<path d="M4.52295 16.3084C5.74502 17.1976 7.18333 17.7425 8.6878 17.8863C10.1923 18.0301 11.7078 17.7675 13.0762 17.1259C14.4445 16.4843 15.6157 15.4872 16.4673 14.2387C17.319 12.9902 17.8199 11.536 17.9179 10.0278H9.72684L4.52295 16.3084Z" fill="#CEDADC"/>
<path d="M17.918 8.9721C17.8699 8.22017 17.7208 7.47814 17.4747 6.76599C16.7409 7.10152 15.9219 7.20445 15.1279 7.06097C14.3339 6.91748 13.6028 6.53446 13.0328 5.96333C12.4628 5.39221 12.0813 4.66034 11.9394 3.86603C11.7975 3.07172 11.9021 2.25302 12.2391 1.51988C10.4186 0.903021 8.44207 0.925731 6.63619 1.58426C4.83031 2.24279 3.30314 3.49772 2.30703 5.1417C1.31093 6.78567 0.905508 8.72028 1.15776 10.6259C1.41001 12.5314 2.30484 14.2939 3.69439 15.6221L9.23078 8.9721H17.918Z" fill="#CEDADC"/>
<path d="M15.8332 5.80561C17.2906 5.80561 18.4721 4.62414 18.4721 3.16672C18.4721 1.7093 17.2906 0.527832 15.8332 0.527832C14.3758 0.527832 13.1943 1.7093 13.1943 3.16672C13.1943 4.62414 14.3758 5.80561 15.8332 5.80561Z" fill="#CEDADC"/>
</svg>
