<svg width="13" height="18" viewBox="0 0 13 18" fill="none" xmlns="http://www.w3.org/2000/svg">
<path d="M12.7065 16.8177C12.7065 17.4702 12.1764 18 11.5243 18H1.17972C0.528841 18 0 17.4686 0 16.8177V11.8203C0 11.1679 0.53012 10.6406 1.17972 10.6406H11.5243C12.1767 10.6406 12.7065 11.1695 12.7065 11.8203V16.8177Z" fill="#CEDADC"/>
<path d="M8.92732 3.28883C8.95609 3.10896 8.97126 2.93162 8.97126 2.76567C8.97126 1.24009 7.79851 0 6.35514 0C4.91339 0 3.73901 1.23887 3.73901 2.76567C3.73901 2.93195 3.75672 3.10897 3.78295 3.28883C3.61415 3.49209 3.57558 3.84361 3.7074 4.17868C3.82278 4.46571 4.03711 4.66485 4.25396 4.72523C4.71675 5.63725 5.46248 6.38831 6.35516 6.38831C7.24784 6.38831 7.99485 5.63723 8.45636 4.72523C8.67606 4.66359 8.88754 4.46571 9.00292 4.17868C9.13474 3.84487 9.09775 3.49335 8.92737 3.28883H8.92732Z" fill="#CEDADC"/>
<path d="M11.2856 10.148C11.162 9.40516 11.0548 9.01638 11.0548 9.01638C10.9258 8.2419 9.22293 7.60052 8.4153 7.33404C8.28886 7.02235 7.98413 6.7998 7.62566 6.7998H5.0797C4.72249 6.7998 4.41902 7.02235 4.29005 7.33404C3.48524 7.59894 1.77978 8.24031 1.65337 9.01638C1.65337 9.01638 1.54336 9.40488 1.42261 10.148H11.2856Z" fill="#CEDADC"/>
</svg>
