<svg width="14" height="18" viewBox="0 0 14 18" fill="none" xmlns="http://www.w3.org/2000/svg">
<path d="M6.09992 9.62508L6.99992 8.94175L7.89158 9.61675C8.21658 9.85841 8.65825 9.55008 8.54158 9.15841L8.19158 8.02508L9.19158 7.23342C9.49992 7.00008 9.32492 6.50008 8.92492 6.50008H7.75825L7.39992 5.38341C7.37252 5.30005 7.3195 5.22747 7.24842 5.17601C7.17734 5.12456 7.09183 5.09685 7.00408 5.09685C6.91633 5.09685 6.83083 5.12456 6.75975 5.17601C6.68867 5.22747 6.63565 5.30005 6.60825 5.38341L6.24158 6.50008H5.06658C4.67492 6.50008 4.49992 7.00008 4.80825 7.24175L5.79992 8.03342L5.44992 9.16675C5.33325 9.55842 5.77492 9.86675 6.09992 9.62508ZM1.99992 17.0084C1.99992 17.5751 2.55825 17.9751 3.09992 17.8001L6.99992 16.5001L10.8999 17.8001C11.0255 17.8429 11.1594 17.855 11.2906 17.8355C11.4218 17.816 11.5464 17.7654 11.6541 17.6879C11.7617 17.6104 11.8493 17.5083 11.9095 17.3901C11.9696 17.2719 12.0006 17.141 11.9999 17.0084V11.7334C13.0744 10.5197 13.6673 8.95446 13.6666 7.33342C13.6666 3.65008 10.6832 0.666748 6.99992 0.666748C3.31658 0.666748 0.333252 3.65008 0.333252 7.33342C0.333252 9.02508 0.966585 10.5584 1.99992 11.7334V17.0084ZM6.99992 2.33341C9.75825 2.33341 11.9999 4.57508 11.9999 7.33342C11.9999 10.0917 9.75825 12.3334 6.99992 12.3334C4.24158 12.3334 1.99992 10.0917 1.99992 7.33342C1.99992 4.57508 4.24158 2.33341 6.99992 2.33341Z" fill="#CEDADC"/>
</svg>
