<svg width="20" height="18" viewBox="0 0 20 18" fill="none" xmlns="http://www.w3.org/2000/svg">
<path d="M19.375 4.00001V4.62501C19.375 4.70789 19.3421 4.78738 19.2835 4.84598C19.2249 4.90459 19.1454 4.93751 19.0625 4.93751H18.125V5.40626C18.125 5.66513 17.9151 5.87501 17.6562 5.87501H2.34375C2.08488 5.87501 1.875 5.66513 1.875 5.40626V4.93751H0.9375C0.85462 4.93751 0.775134 4.90459 0.716529 4.84598C0.657924 4.78738 0.625 4.70789 0.625 4.62501V4.00001C0.625 3.93819 0.643339 3.87775 0.677695 3.82635C0.712052 3.77496 0.760882 3.7349 0.818008 3.71126L9.88051 0.273761C9.95702 0.24208 10.043 0.24208 10.1195 0.273761L19.182 3.71126C19.2391 3.7349 19.2879 3.77496 19.3223 3.82635C19.3567 3.87775 19.375 3.93819 19.375 4.00001ZM18.4375 15.875H1.5625C1.04473 15.875 0.625 16.2947 0.625 16.8125V17.4375C0.625 17.5204 0.657924 17.5999 0.716529 17.6585C0.775134 17.7171 0.85462 17.75 0.9375 17.75H19.0625C19.1454 17.75 19.2249 17.7171 19.2835 17.6585C19.3421 17.5999 19.375 17.5204 19.375 17.4375V16.8125C19.375 16.2947 18.9553 15.875 18.4375 15.875ZM3.75 6.50001V14H2.34375C2.08488 14 1.875 14.2099 1.875 14.4688V15.25H18.125V14.4688C18.125 14.2099 17.9151 14 17.6562 14H16.25V6.50001H13.75V14H11.25V6.50001H8.75V14H6.25V6.50001H3.75Z" fill="#CEDADC"/>
</svg>
