<svg width="70" height="70" viewBox="0 0 70 70" fill="none" xmlns="http://www.w3.org/2000/svg">
<path d="M60.6665 42.0002H48.6035L27.9998 21.3965V9.33354C27.9998 6.85792 27.0167 4.48417 25.2662 2.73354C23.5158 0.982917 21.1419 0 18.6671 0H9.33354C6.85791 0 4.48416 0.983084 2.73354 2.73354C0.982914 4.484 0 6.85792 0 9.33354V18.6671C0 21.1419 0.983081 23.5156 2.73354 25.2662C4.484 27.0169 6.85791 27.9998 9.33354 27.9998H21.3965L42.0002 48.6035V60.6665C42.0002 63.1421 42.9833 65.5158 44.7337 67.2665C46.4842 69.0171 48.8581 70 51.3329 70H60.6665C63.1421 70 65.5158 69.0169 67.2665 67.2665C69.0171 65.516 70 63.1421 70 60.6665V51.3329C70 48.8581 69.0169 46.4844 67.2665 44.7338C65.516 42.9831 63.1421 42.0002 60.6665 42.0002ZM18.6665 18.6669H9.33291V9.33333H18.6665V18.6669ZM60.6665 60.6669H51.3329V51.3333H60.6665V60.6669Z" fill="#F85D05"/>
<path d="M62.9997 35.0004C64.2375 35.0004 65.4249 34.5088 66.2997 33.6332C67.1753 32.7583 67.6669 31.571 67.6669 30.334V16.3334C67.6669 12.6209 66.1915 9.05963 63.566 6.43421C60.9406 3.80879 57.3796 2.33337 53.6669 2.33337H39.6663C37.9996 2.33337 36.459 3.22285 35.625 4.6665C34.7917 6.111 34.7917 7.89004 35.625 9.33358C36.4591 10.7773 37.9996 11.6667 39.6663 11.6667H53.6669C54.9039 11.6667 56.0913 12.1582 56.966 13.0339C57.8417 13.9087 58.3332 15.0961 58.3332 16.3331V30.3337C58.3332 31.5707 58.8248 32.7581 59.7004 33.6329C60.5753 34.5085 61.7626 35 62.9996 35L62.9997 35.0004Z" fill="#005D8C"/>
<path d="M30.3326 58.3335H16.332C15.095 58.3335 13.9076 57.8419 13.0328 56.9663C12.1572 56.0915 11.6656 54.9041 11.6656 53.6671V39.6665C11.6656 37.9998 10.7761 36.4592 9.33248 35.6252C7.8888 34.7919 6.10978 34.7919 4.6654 35.6252C3.22171 36.4594 2.33228 37.9998 2.33228 39.6665V53.6671C2.33228 57.3796 3.80769 60.9409 6.43311 63.5663C9.05853 66.1917 12.6196 67.6671 16.3323 67.6671H30.3329C31.9996 67.6671 33.5402 66.7776 34.3742 65.334C35.2075 63.8895 35.2075 62.1105 34.3742 60.6669C33.54 59.2232 31.9996 58.3338 30.3329 58.3338L30.3326 58.3335Z" fill="#005D8C"/>
</svg>
