<svg width="20" height="14" viewBox="0 0 20 14" fill="none" xmlns="http://www.w3.org/2000/svg">
<path d="M1 11.8722H13C13.5523 11.8722 14 12.3146 14 12.8603C14 13.3671 13.614 13.7847 13.1166 13.8419L13 13.8485H1C0.44772 13.8485 0 13.4061 0 12.8603C0 12.3536 0.38604 11.936 0.88338 11.8788L1 11.8722H13H1ZM1 5.94343H19C19.5523 5.94343 20 6.38582 20 6.93156C20 7.43828 19.614 7.85596 19.1166 7.91307L19 7.91969H1C0.44772 7.91969 0 7.47731 0 6.93156C0 6.42485 0.38604 6.00717 0.88338 5.95005L1 5.94343H19H1ZM1 0.0146484H16C16.5523 0.0146484 17 0.457054 17 1.00278C17 1.50953 16.614 1.92719 16.1166 1.98426L16 1.99091H1C0.44772 1.99091 0 1.5485 0 1.00278C0 0.496026 0.38604 0.0783731 0.88338 0.0212986L1 0.0146484H16H1Z" fill="#005D8C"/>
</svg>
